# xmcd
#
# Track frame offsets:
#	150
#	5394
#	21219
#	35181
#	57615
#	75562
#	89864
#	103258
#	119482
#	135058
#	151810
#	164482
#	180018
#	207799
#
# Disc length: 2933 seconds
#
# Revision: 0
# Processed by: cddbd v1.5.1PL2 Copyright (c) Steve Scherf et al.
# Submitted via: dBpowerAMP V4.0
#
DISCID=b20b730e
DTITLE=Big and Rich - Comin' To Your City
DYEAR=2005
DGENRE=Country
TTITLE0=Freak Parade
TTITLE1=Comin' To Your City
TTITLE2=Soul Shaker
TTITLE3=Never Mind Me
TTITLE4=Caught Up in the Moment
TTITLE5=Leap of Faith
TTITLE6=I Pray for You
TTITLE7=Filthy Rich
TTITLE8=Jalapeno
TTITLE9=20 Margaritas
TTITLE10=Blow My Mind
TTITLE11=Slow Motion
TTITLE12=8th Of November
TTITLE13=Our America (*)
EXTD=
EXTT0=
EXTT1=
EXTT2=
EXTT3=
EXTT4=
EXTT5=
EXTT6=
EXTT7=
EXTT8=
EXTT9=
EXTT10=
EXTT11=
EXTT12=
EXTT13=
PLAYORDER=
